<mxfile host="65bd71144e">
    <diagram id="c7vmIrqh-iZmFUjCSniF" name="Page-1">
        <mxGraphModel dx="764" dy="481" grid="1" gridSize="10" guides="1" tooltips="1" connect="1" arrows="1" fold="1" page="1" pageScale="1" pageWidth="827" pageHeight="1169" math="0" shadow="0">
            <root>
                <mxCell id="0"/>
                <mxCell id="1" parent="0"/>
                <mxCell id="LsCPsE4KsAPTGshUv829-7" value="" style="edgeStyle=orthogonalEdgeStyle;html=1;endArrow=block;elbow=vertical;startArrow=none;endFill=1;rounded=0;entryX=0;entryY=0.5;entryDx=0;entryDy=0;entryPerimeter=0;fillColor=#f5f5f5;strokeColor=#BDBDBD;" parent="1" source="pG77sFZQBysa_G_yLe_r-4" target="1V7YKFIiwjGBXON4dTnP-3" edge="1">
                    <mxGeometry width="100" relative="1" as="geometry">
                        <mxPoint x="116" y="428.5" as="sourcePoint"/>
                        <mxPoint x="243" y="428.5" as="targetPoint"/>
                    </mxGeometry>
                </mxCell>
                <mxCell id="LsCPsE4KsAPTGshUv829-19" style="edgeStyle=orthogonalEdgeStyle;rounded=0;orthogonalLoop=1;jettySize=auto;html=1;" parent="1" source="1V7YKFIiwjGBXON4dTnP-3" target="LsCPsE4KsAPTGshUv829-15" edge="1">
                    <mxGeometry relative="1" as="geometry">
                        <Array as="points">
                            <mxPoint x="478" y="339.25"/>
                            <mxPoint x="478" y="339.25"/>
                        </Array>
                    </mxGeometry>
                </mxCell>
                <mxCell id="LsCPsE4KsAPTGshUv829-20" style="edgeStyle=orthogonalEdgeStyle;rounded=0;orthogonalLoop=1;jettySize=auto;html=1;entryX=0;entryY=0.5;entryDx=0;entryDy=0;entryPerimeter=0;" parent="1" source="1V7YKFIiwjGBXON4dTnP-3" target="LsCPsE4KsAPTGshUv829-17" edge="1">
                    <mxGeometry relative="1" as="geometry">
                        <Array as="points">
                            <mxPoint x="410" y="339"/>
                            <mxPoint x="410" y="439"/>
                        </Array>
                    </mxGeometry>
                </mxCell>
                <mxCell id="LsCPsE4KsAPTGshUv829-23" style="edgeStyle=orthogonalEdgeStyle;rounded=0;orthogonalLoop=1;jettySize=auto;html=1;entryX=0;entryY=0.5;entryDx=0;entryDy=0;entryPerimeter=0;" parent="1" source="1V7YKFIiwjGBXON4dTnP-3" target="LsCPsE4KsAPTGshUv829-22" edge="1">
                    <mxGeometry relative="1" as="geometry">
                        <Array as="points">
                            <mxPoint x="410" y="339"/>
                            <mxPoint x="410" y="559"/>
                        </Array>
                    </mxGeometry>
                </mxCell>
                <mxCell id="1V7YKFIiwjGBXON4dTnP-4" value="" style="edgeStyle=orthogonalEdgeStyle;html=1;endArrow=block;elbow=vertical;startArrow=none;endFill=1;strokeColor=#545B64;rounded=0;exitX=1;exitY=0.5;exitDx=0;exitDy=0;exitPerimeter=0;" parent="1" source="1V7YKFIiwjGBXON4dTnP-6" target="1V7YKFIiwjGBXON4dTnP-3" edge="1">
                    <mxGeometry width="100" relative="1" as="geometry">
                        <mxPoint x="93" y="339" as="sourcePoint"/>
                        <mxPoint x="183" y="360" as="targetPoint"/>
                    </mxGeometry>
                </mxCell>
                <UserObject label="&lt;div&gt;IoT Rules &lt;br&gt;&lt;/div&gt;&lt;div&gt;Engine&lt;/div&gt;" link="https://docs.aws.amazon.com/iot/latest/developerguide/iot-rules-tutorial.html" id="LsCPsE4KsAPTGshUv829-16">
                    <mxCell style="text;html=1;align=center;verticalAlign=middle;resizable=0;points=[];autosize=1;strokeColor=none;" parent="1" vertex="1">
                        <mxGeometry x="314" y="299.25" width="70" height="30" as="geometry"/>
                    </mxCell>
                </UserObject>
                <mxCell id="pG77sFZQBysa_G_yLe_r-1" value="" style="group" parent="1" vertex="1" connectable="0">
                    <mxGeometry x="38" y="300" width="78" height="98" as="geometry"/>
                </mxCell>
                <mxCell id="1V7YKFIiwjGBXON4dTnP-5" value="EC2" style="text;html=1;strokeColor=none;fillColor=none;align=center;verticalAlign=middle;whiteSpace=wrap;rounded=0;" parent="pG77sFZQBysa_G_yLe_r-1" vertex="1">
                    <mxGeometry x="19" y="78" width="40" height="20" as="geometry"/>
                </mxCell>
                <mxCell id="1V7YKFIiwjGBXON4dTnP-6" value="" style="points=[[0,0,0],[0.25,0,0],[0.5,0,0],[0.75,0,0],[1,0,0],[0,1,0],[0.25,1,0],[0.5,1,0],[0.75,1,0],[1,1,0],[0,0.25,0],[0,0.5,0],[0,0.75,0],[1,0.25,0],[1,0.5,0],[1,0.75,0]];outlineConnect=0;fontColor=#232F3E;gradientColor=#F78E04;gradientDirection=north;fillColor=#D05C17;strokeColor=#ffffff;dashed=0;verticalLabelPosition=bottom;verticalAlign=top;align=center;html=1;fontSize=12;fontStyle=0;aspect=fixed;shape=mxgraph.aws4.resourceIcon;resIcon=mxgraph.aws4.compute;" parent="pG77sFZQBysa_G_yLe_r-1" vertex="1">
                    <mxGeometry width="78" height="78" as="geometry"/>
                </mxCell>
                <mxCell id="pG77sFZQBysa_G_yLe_r-2" value="" style="group" parent="1" vertex="1" connectable="0">
                    <mxGeometry x="210" y="300.25" width="80" height="98" as="geometry"/>
                </mxCell>
                <mxCell id="1V7YKFIiwjGBXON4dTnP-3" value="" style="points=[[0,0,0],[0.25,0,0],[0.5,0,0],[0.75,0,0],[1,0,0],[0,1,0],[0.25,1,0],[0.5,1,0],[0.75,1,0],[1,1,0],[0,0.25,0],[0,0.5,0],[0,0.75,0],[1,0.25,0],[1,0.5,0],[1,0.75,0]];outlineConnect=0;fontColor=#232F3E;gradientColor=#60A337;gradientDirection=north;fillColor=#277116;strokeColor=#ffffff;dashed=0;verticalLabelPosition=bottom;verticalAlign=top;align=center;html=1;fontSize=12;fontStyle=0;aspect=fixed;shape=mxgraph.aws4.resourceIcon;resIcon=mxgraph.aws4.iot_core;" parent="pG77sFZQBysa_G_yLe_r-2" vertex="1">
                    <mxGeometry width="78" height="78" as="geometry"/>
                </mxCell>
                <mxCell id="LsCPsE4KsAPTGshUv829-5" value="IoT Core" style="text;html=1;align=center;verticalAlign=middle;resizable=0;points=[];autosize=1;strokeColor=none;" parent="pG77sFZQBysa_G_yLe_r-2" vertex="1">
                    <mxGeometry x="10" y="78" width="60" height="20" as="geometry"/>
                </mxCell>
                <mxCell id="pG77sFZQBysa_G_yLe_r-6" value="" style="group" parent="1" vertex="1" connectable="0">
                    <mxGeometry x="17" y="410" width="112" height="120" as="geometry"/>
                </mxCell>
                <mxCell id="LsCPsE4KsAPTGshUv829-6" value="" style="points=[[0,0,0],[0.25,0,0],[0.5,0,0],[0.75,0,0],[1,0,0],[0,1,0],[0.25,1,0],[0.5,1,0],[0.75,1,0],[1,1,0],[0,0.25,0],[0,0.5,0],[0,0.75,0],[1,0.25,0],[1,0.5,0],[1,0.75,0]];outlineConnect=0;gradientDirection=north;dashed=0;verticalLabelPosition=bottom;verticalAlign=top;align=center;html=1;fontSize=12;fontStyle=0;aspect=fixed;shape=mxgraph.aws4.resourceIcon;resIcon=mxgraph.aws4.compute;shadow=0;fillColor=#f5f5f5;strokeColor=#666666;fontColor=#333333;" parent="pG77sFZQBysa_G_yLe_r-6" vertex="1">
                    <mxGeometry width="78" height="78" as="geometry"/>
                </mxCell>
                <mxCell id="pG77sFZQBysa_G_yLe_r-4" value="" style="points=[[0,0,0],[0.25,0,0],[0.5,0,0],[0.75,0,0],[1,0,0],[0,1,0],[0.25,1,0],[0.5,1,0],[0.75,1,0],[1,1,0],[0,0.25,0],[0,0.5,0],[0,0.75,0],[1,0.25,0],[1,0.5,0],[1,0.75,0]];outlineConnect=0;gradientDirection=north;dashed=0;verticalLabelPosition=bottom;verticalAlign=top;align=center;html=1;fontSize=12;fontStyle=0;aspect=fixed;shape=mxgraph.aws4.resourceIcon;resIcon=mxgraph.aws4.compute;shadow=0;fillColor=#f5f5f5;strokeColor=#666666;fontColor=#333333;" parent="pG77sFZQBysa_G_yLe_r-6" vertex="1">
                    <mxGeometry x="34" y="20" width="78" height="78" as="geometry"/>
                </mxCell>
                <mxCell id="pG77sFZQBysa_G_yLe_r-5" value="Field Devices" style="text;html=1;strokeColor=none;fillColor=none;align=center;verticalAlign=middle;whiteSpace=wrap;rounded=0;" parent="pG77sFZQBysa_G_yLe_r-6" vertex="1">
                    <mxGeometry x="59" y="98" width="40" height="20" as="geometry"/>
                </mxCell>
                <mxCell id="13" value="" style="rounded=0;whiteSpace=wrap;html=1;shadow=0;dashed=1;fillColor=#f5f5f5;fontColor=#333333;fillOpacity=70;strokeColor=none;" vertex="1" parent="pG77sFZQBysa_G_yLe_r-6">
                    <mxGeometry x="-2" width="112" height="120" as="geometry"/>
                </mxCell>
                <mxCell id="pG77sFZQBysa_G_yLe_r-8" value="" style="group" parent="1" vertex="1" connectable="0">
                    <mxGeometry x="447" y="520.25" width="90" height="98" as="geometry"/>
                </mxCell>
                <mxCell id="LsCPsE4KsAPTGshUv829-22" value="" style="points=[[0,0,0],[0.25,0,0],[0.5,0,0],[0.75,0,0],[1,0,0],[0,1,0],[0.25,1,0],[0.5,1,0],[0.75,1,0],[1,1,0],[0,0.25,0],[0,0.5,0],[0,0.75,0],[1,0.25,0],[1,0.5,0],[1,0.75,0]];outlineConnect=0;fontColor=#232F3E;gradientColor=#945DF2;gradientDirection=north;fillColor=#5A30B5;strokeColor=#ffffff;dashed=0;verticalLabelPosition=bottom;verticalAlign=top;align=center;html=1;fontSize=12;fontStyle=0;aspect=fixed;shape=mxgraph.aws4.resourceIcon;resIcon=mxgraph.aws4.kinesis_data_streams;shadow=0;" parent="pG77sFZQBysa_G_yLe_r-8" vertex="1">
                    <mxGeometry x="4" width="78" height="78" as="geometry"/>
                </mxCell>
                <mxCell id="pG77sFZQBysa_G_yLe_r-7" value="AWS Kinesis" style="text;html=1;align=center;verticalAlign=middle;resizable=0;points=[];autosize=1;strokeColor=none;" parent="pG77sFZQBysa_G_yLe_r-8" vertex="1">
                    <mxGeometry y="78" width="90" height="20" as="geometry"/>
                </mxCell>
                <mxCell id="pG77sFZQBysa_G_yLe_r-10" value="" style="group" parent="1" vertex="1" connectable="0">
                    <mxGeometry x="442" y="400.25" width="100" height="98" as="geometry"/>
                </mxCell>
                <mxCell id="LsCPsE4KsAPTGshUv829-17" value="" style="points=[[0,0,0],[0.25,0,0],[0.5,0,0],[0.75,0,0],[1,0,0],[0,1,0],[0.25,1,0],[0.5,1,0],[0.75,1,0],[1,1,0],[0,0.25,0],[0,0.5,0],[0,0.75,0],[1,0.25,0],[1,0.5,0],[1,0.75,0]];outlineConnect=0;fontColor=#232F3E;gradientColor=#60A337;gradientDirection=north;fillColor=#277116;strokeColor=#ffffff;dashed=0;verticalLabelPosition=bottom;verticalAlign=top;align=center;html=1;fontSize=12;fontStyle=0;aspect=fixed;shape=mxgraph.aws4.resourceIcon;resIcon=mxgraph.aws4.s3;shadow=0;" parent="pG77sFZQBysa_G_yLe_r-10" vertex="1">
                    <mxGeometry x="11" width="78" height="78" as="geometry"/>
                </mxCell>
                <mxCell id="pG77sFZQBysa_G_yLe_r-9" value="AWS S3 Bucket" style="text;html=1;align=center;verticalAlign=middle;resizable=0;points=[];autosize=1;strokeColor=none;" parent="pG77sFZQBysa_G_yLe_r-10" vertex="1">
                    <mxGeometry y="78" width="100" height="20" as="geometry"/>
                </mxCell>
                <mxCell id="pG77sFZQBysa_G_yLe_r-12" value="" style="group" parent="1" vertex="1" connectable="0">
                    <mxGeometry x="452" y="280.25" width="80" height="101" as="geometry"/>
                </mxCell>
                <mxCell id="pG77sFZQBysa_G_yLe_r-13" value="" style="group" parent="pG77sFZQBysa_G_yLe_r-12" vertex="1" connectable="0">
                    <mxGeometry x="-3" width="80" height="101" as="geometry"/>
                </mxCell>
                <mxCell id="LsCPsE4KsAPTGshUv829-15" value="" style="outlineConnect=0;dashed=0;verticalLabelPosition=bottom;verticalAlign=top;align=center;html=1;shape=mxgraph.aws3.dynamo_db;fillColor=#2E73B8;gradientColor=none;shadow=0;" parent="pG77sFZQBysa_G_yLe_r-13" vertex="1">
                    <mxGeometry x="4" width="72" height="81" as="geometry"/>
                </mxCell>
                <mxCell id="pG77sFZQBysa_G_yLe_r-11" value="&lt;div&gt;DynamoDB&lt;/div&gt;" style="text;html=1;align=center;verticalAlign=middle;resizable=0;points=[];autosize=1;strokeColor=none;" parent="pG77sFZQBysa_G_yLe_r-13" vertex="1">
                    <mxGeometry y="81" width="80" height="20" as="geometry"/>
                </mxCell>
                <mxCell id="pG77sFZQBysa_G_yLe_r-16" style="edgeStyle=orthogonalEdgeStyle;rounded=0;orthogonalLoop=1;jettySize=auto;html=1;" parent="1" source="1V7YKFIiwjGBXON4dTnP-3" target="umElyPE7NqETPqEDCRQc-4" edge="1">
                    <mxGeometry relative="1" as="geometry">
                        <mxPoint x="476" y="209.2500000000001" as="targetPoint"/>
                        <Array as="points">
                            <mxPoint x="410" y="339"/>
                            <mxPoint x="410" y="209"/>
                        </Array>
                    </mxGeometry>
                </mxCell>
                <mxCell id="pG77sFZQBysa_G_yLe_r-20" value="" style="rounded=0;whiteSpace=wrap;html=1;shadow=0;dashed=1;fillColor=#f5f5f5;fontColor=#333333;fillOpacity=70;strokeColor=none;" parent="1" vertex="1">
                    <mxGeometry x="440" y="270" width="100" height="350" as="geometry"/>
                </mxCell>
                <mxCell id="umElyPE7NqETPqEDCRQc-1" value="MQTT Broker" style="text;html=1;align=center;verticalAlign=middle;resizable=0;points=[];autosize=1;strokeColor=none;" parent="1" vertex="1">
                    <mxGeometry x="32" y="274.5" width="90" height="20" as="geometry"/>
                </mxCell>
                <mxCell id="umElyPE7NqETPqEDCRQc-2" value="MQTT" style="text;html=1;align=center;verticalAlign=middle;resizable=0;points=[];autosize=1;strokeColor=none;" parent="1" vertex="1">
                    <mxGeometry x="140" y="309.25" width="50" height="20" as="geometry"/>
                </mxCell>
                <mxCell id="umElyPE7NqETPqEDCRQc-3" value="" style="group" parent="1" vertex="1" connectable="0">
                    <mxGeometry x="453" y="160" width="86" height="100" as="geometry"/>
                </mxCell>
                <mxCell id="umElyPE7NqETPqEDCRQc-4" value="" style="outlineConnect=0;fontColor=#232F3E;gradientColor=none;fillColor=#D05C17;strokeColor=none;dashed=0;verticalLabelPosition=bottom;verticalAlign=top;align=center;html=1;fontSize=12;fontStyle=0;aspect=fixed;pointerEvents=1;shape=mxgraph.aws4.lambda_function;" parent="umElyPE7NqETPqEDCRQc-3" vertex="1">
                    <mxGeometry x="12.285714285714286" y="21.348314606741575" width="56.17977528089888" height="56.17977528089888" as="geometry"/>
                </mxCell>
                <mxCell id="umElyPE7NqETPqEDCRQc-5" value="Lambda" style="text;html=1;align=center;verticalAlign=middle;resizable=0;points=[];autosize=1;strokeColor=none;" parent="umElyPE7NqETPqEDCRQc-3" vertex="1">
                    <mxGeometry x="10.372857142857143" y="77.52808988764045" width="60" height="20" as="geometry"/>
                </mxCell>
                <mxCell id="umElyPE7NqETPqEDCRQc-6" value="" style="group" parent="1" vertex="1" connectable="0">
                    <mxGeometry x="453" y="70" width="108" height="115.75" as="geometry"/>
                </mxCell>
                <mxCell id="LsCPsE4KsAPTGshUv829-8" value="" style="points=[[0,0,0],[0.25,0,0],[0.5,0,0],[0.75,0,0],[1,0,0],[0,1,0],[0.25,1,0],[0.5,1,0],[0.75,1,0],[1,1,0],[0,0.25,0],[0,0.5,0],[0,0.75,0],[1,0.25,0],[1,0.5,0],[1,0.75,0]];outlineConnect=0;fontColor=#232F3E;gradientColor=#60A337;gradientDirection=north;fillColor=#277116;strokeColor=#ffffff;dashed=0;verticalLabelPosition=bottom;verticalAlign=top;align=center;html=1;fontSize=12;fontStyle=0;aspect=fixed;shape=mxgraph.aws4.resourceIcon;resIcon=mxgraph.aws4.iot_analytics;shadow=0;" parent="umElyPE7NqETPqEDCRQc-6" vertex="1">
                    <mxGeometry width="78" height="78" as="geometry"/>
                </mxCell>
                <mxCell id="LsCPsE4KsAPTGshUv829-9" value="IoT Analytics" style="text;html=1;align=center;verticalAlign=middle;resizable=0;points=[];autosize=1;strokeColor=none;" parent="umElyPE7NqETPqEDCRQc-6" vertex="1">
                    <mxGeometry y="78" width="80" height="20" as="geometry"/>
                </mxCell>
                <mxCell id="pG77sFZQBysa_G_yLe_r-26" value="" style="rounded=0;whiteSpace=wrap;html=1;shadow=0;dashed=1;fillColor=#f5f5f5;fontColor=#333333;fillOpacity=70;strokeColor=none;" parent="umElyPE7NqETPqEDCRQc-6" vertex="1">
                    <mxGeometry x="-10" y="-10" width="100" height="110" as="geometry"/>
                </mxCell>
                <mxCell id="umElyPE7NqETPqEDCRQc-7" style="edgeStyle=orthogonalEdgeStyle;rounded=0;orthogonalLoop=1;jettySize=auto;html=1;entryX=0;entryY=0.5;entryDx=0;entryDy=0;entryPerimeter=0;" parent="1" source="1V7YKFIiwjGBXON4dTnP-3" target="LsCPsE4KsAPTGshUv829-8" edge="1">
                    <mxGeometry relative="1" as="geometry">
                        <Array as="points">
                            <mxPoint x="410" y="339"/>
                            <mxPoint x="410" y="109"/>
                        </Array>
                    </mxGeometry>
                </mxCell>
                <mxCell id="4" value="" style="edgeStyle=orthogonalEdgeStyle;rounded=0;orthogonalLoop=1;jettySize=auto;html=1;strokeColor=#BDBDBD;" edge="1" parent="1" source="umElyPE7NqETPqEDCRQc-4">
                    <mxGeometry relative="1" as="geometry">
                        <mxPoint x="590" y="209" as="targetPoint"/>
                    </mxGeometry>
                </mxCell>
                <mxCell id="9" value="" style="outlineConnect=0;fontColor=#232F3E;gradientColor=none;fillColor=#D05C17;strokeColor=none;dashed=0;verticalLabelPosition=bottom;verticalAlign=top;align=center;html=1;fontSize=12;fontStyle=0;aspect=fixed;pointerEvents=1;shape=mxgraph.aws4.lambda_function;" vertex="1" parent="1">
                    <mxGeometry x="601.9157142857143" y="179.15831460674158" width="56.17977528089888" height="56.17977528089888" as="geometry"/>
                </mxCell>
                <mxCell id="10" value="Lambda" style="text;html=1;align=center;verticalAlign=middle;resizable=0;points=[];autosize=1;strokeColor=none;" vertex="1" parent="1">
                    <mxGeometry x="600.0028571428571" y="235.33808988764045" width="60" height="20" as="geometry"/>
                </mxCell>
                <mxCell id="8" value="" style="rounded=0;whiteSpace=wrap;html=1;shadow=0;dashed=1;fillColor=#f5f5f5;fontColor=#333333;fillOpacity=70;strokeColor=none;" vertex="1" parent="1">
                    <mxGeometry x="590.01" y="170" width="80" height="90" as="geometry"/>
                </mxCell>
                <UserObject label="&lt;div&gt;Lambda&lt;br&gt;Gruppe 2&lt;/div&gt;" id="11">
                    <mxCell style="text;html=1;align=center;verticalAlign=middle;resizable=0;points=[];autosize=1;strokeColor=none;" vertex="1" parent="1">
                        <mxGeometry x="595" y="130" width="70" height="30" as="geometry"/>
                    </mxCell>
                </UserObject>
            </root>
        </mxGraphModel>
    </diagram>
</mxfile>